<?xml version="1.0" encoding="utf-8"?>
<!-- Generator: Adobe Illustrator 28.1.0, SVG Export Plug-In . SVG Version: 6.00 Build 0)  -->
<svg version="1.1" id="Layer_2_00000043439887621083638080000015116556001269473410_"
	 xmlns="http://www.w3.org/2000/svg" xmlns:xlink="http://www.w3.org/1999/xlink" x="0px" y="0px" viewBox="0 0 290.5 35.8"
	 style="enable-background:new 0 0 290.5 35.8;" xml:space="preserve">
<style type="text/css">
	.st0{fill:#434650;}
	.st1{fill:#FF729F;}
</style>
<g>
	<path class="st0" d="M30,12.1c1.7,1.8,2.5,4.4,2.5,7.6v14.2h-7.4V20.7c0-1.6-0.4-2.9-1.3-3.8c-0.8-0.9-2-1.4-3.4-1.4
		c-1.4,0-2.6,0.5-3.4,1.4c-0.8,0.9-1.3,2.2-1.3,3.8v13.2H8.4V9.5h7.5v3.2c0.8-1.1,1.8-1.9,3-2.5c1.3-0.6,2.7-0.9,4.3-0.9
		C26.1,9.3,28.3,10.2,30,12.1z"/>
	<path class="st0" d="M61.8,9.5v24.3h-7.5v-3.3c-0.8,1.1-1.8,1.9-3.1,2.6c-1.3,0.7-2.7,1-4.3,1c-1.9,0-3.5-0.4-4.9-1.2
		c-1.4-0.8-2.5-2-3.3-3.6c-0.8-1.6-1.2-3.4-1.2-5.5V9.5H45v13.2c0,1.6,0.4,2.9,1.3,3.8c0.8,0.9,2,1.4,3.4,1.4c1.5,0,2.6-0.5,3.4-1.4
		c0.8-0.9,1.3-2.2,1.3-3.8V9.5H61.8z"/>
	<path class="st0" d="M80.7,27.5v6.3h-3.8c-2.7,0-4.8-0.7-6.3-2c-1.5-1.3-2.3-3.5-2.3-6.5v-9.7h-3V9.5h3V3.6h7.5v5.9h4.9v6.2h-4.9
		v9.8c0,0.7,0.2,1.2,0.5,1.6c0.3,0.3,0.9,0.5,1.7,0.5H80.7z"/>
	<path class="st0" d="M98.4,27.5v6.3h-3.8c-2.7,0-4.8-0.7-6.3-2c-1.5-1.3-2.3-3.5-2.3-6.5v-9.7h-3V9.5h3V3.6h7.5v5.9h4.9v6.2h-4.9
		v9.8c0,0.7,0.2,1.2,0.5,1.6c0.3,0.3,0.9,0.5,1.7,0.5H98.4z"/>
	<path class="st0" d="M124.2,12.1c1.7,1.8,2.5,4.4,2.5,7.6v14.2h-7.4V20.7c0-1.6-0.4-2.9-1.3-3.8c-0.8-0.9-2-1.4-3.4-1.4
		c-1.4,0-2.6,0.5-3.4,1.4c-0.8,0.9-1.3,2.2-1.3,3.8v13.2h-7.5V1.6h7.5v11.2c0.8-1.1,1.8-1.9,3.1-2.6c1.3-0.6,2.8-1,4.4-1
		C120.2,9.3,122.5,10.2,124.2,12.1z"/>
	<path class="st0" d="M131.8,15.1c0.9-1.9,2.2-3.3,3.9-4.4c1.6-1,3.4-1.5,5.4-1.5c1.7,0,3.2,0.3,4.5,1c1.3,0.7,2.3,1.6,3,2.7V9.5
		h7.5v24.3h-7.5v-3.4c-0.7,1.1-1.7,2-3,2.7c-1.3,0.7-2.8,1-4.5,1c-2,0-3.8-0.5-5.4-1.5c-1.6-1-2.9-2.5-3.9-4.4s-1.4-4.1-1.4-6.6
		S130.9,17,131.8,15.1z M147.1,17.3c-1-1.1-2.3-1.6-3.8-1.6s-2.7,0.5-3.8,1.6c-1,1.1-1.5,2.5-1.5,4.4c0,1.9,0.5,3.3,1.5,4.4
		c1,1.1,2.3,1.6,3.8,1.6s2.7-0.5,3.8-1.6c1-1.1,1.5-2.5,1.5-4.4C148.6,19.8,148.1,18.4,147.1,17.3z"/>
	<path class="st1" d="M171.9,10.2c1.3-0.7,2.8-1,4.5-1c2,0,3.8,0.5,5.4,1.5c1.6,1,2.9,2.5,3.9,4.4c0.9,1.9,1.4,4.1,1.4,6.6
		s-0.5,4.7-1.4,6.6c-0.9,1.9-2.2,3.4-3.9,4.4c-1.6,1-3.4,1.5-5.4,1.5c-1.7,0-3.2-0.3-4.5-1c-1.3-0.7-2.3-1.6-3-2.7v3.4h-7.5V1.6h7.5
		V13C169.6,11.9,170.6,10.9,171.9,10.2z M178,17.3c-1-1.1-2.3-1.6-3.8-1.6c-1.5,0-2.7,0.5-3.8,1.6c-1,1.1-1.5,2.5-1.5,4.4
		c0,1.9,0.5,3.3,1.5,4.4c1,1.1,2.3,1.6,3.8,1.6s2.7-0.5,3.8-1.6c1-1.1,1.6-2.6,1.6-4.4C179.5,19.8,179,18.3,178,17.3z"/>
	<path class="st1" d="M201.8,10.4c1.3-0.8,2.8-1.2,4.4-1.2v7.9h-2c-1.9,0-3.3,0.4-4.2,1.2c-0.9,0.8-1.4,2.2-1.4,4.2v11.3H191V9.5
		h7.5v4.1C199.4,12.3,200.4,11.2,201.8,10.4z"/>
	<path class="st1" d="M232.5,23.5h-16.9c0.1,1.5,0.6,2.7,1.5,3.5c0.9,0.8,1.9,1.2,3.2,1.2c1.9,0,3.2-0.8,3.9-2.4h7.9
		c-0.4,1.6-1.1,3-2.2,4.3c-1.1,1.3-2.4,2.3-4,3c-1.6,0.7-3.4,1.1-5.4,1.1c-2.4,0-4.5-0.5-6.4-1.5c-1.9-1-3.3-2.5-4.4-4.4
		c-1-1.9-1.6-4.1-1.6-6.6c0-2.5,0.5-4.7,1.5-6.6c1-1.9,2.5-3.3,4.3-4.4s4-1.5,6.4-1.5c2.4,0,4.4,0.5,6.3,1.5c1.8,1,3.3,2.4,4.3,4.2
		c1,1.8,1.5,4,1.5,6.4C232.6,22,232.6,22.7,232.5,23.5z M225,19.4c0-1.3-0.4-2.3-1.3-3c-0.9-0.8-2-1.1-3.3-1.1
		c-1.2,0-2.3,0.4-3.2,1.1c-0.9,0.7-1.4,1.8-1.6,3.1H225z"/>
	<path class="st1" d="M271.4,9.5l-6.6,24.3h-8.2l-3.8-15.8l-4,15.8h-8.2L234,9.5h7.5l3.4,17.4L249,9.5h7.9l4.1,17.3l3.4-17.3H271.4z
		"/>
	<path class="st0" d="M274.5,33.1c-0.8-0.8-1.2-1.7-1.2-2.9c0-1.2,0.4-2.1,1.2-2.9c0.8-0.8,1.9-1.2,3.2-1.2c1.3,0,2.3,0.4,3.2,1.2
		c0.8,0.8,1.2,1.8,1.2,2.9c0,1.1-0.4,2.1-1.2,2.9c-0.8,0.8-1.9,1.2-3.2,1.2C276.4,34.2,275.4,33.8,274.5,33.1z"/>
	<g>
		<path class="st1" d="M210.7,15.7l-2.2-6.5c-0.3-0.8,0.5-1.6,1.4-1.4l6.5,2.2"/>
		<path class="st1" d="M224.4,10l6.5-2.2c0.8-0.3,1.6,0.5,1.4,1.4l-2.2,6.5"/>
	</g>
</g>
</svg>
